<?xml version="1.0" encoding="utf-8"?>
<!-- Generator: Adobe Illustrator 22.1.0, SVG Export Plug-In . SVG Version: 6.00 Build 0)  -->
<svg version="1.1" id="Layer_1" xmlns="http://www.w3.org/2000/svg" xmlns:xlink="http://www.w3.org/1999/xlink" x="0px" y="0px"
	 viewBox="0 0 365 90" style="enable-background:new 0 0 365 90;" xml:space="preserve">
<style type="text/css">
	.st0{fill:#29166F;}
</style>
<g>
	<g>
		<defs>
			<rect id="SVGID_1_" x="47.3" y="8.4" width="66.5" height="73.8"/>
		</defs>
		<clipPath id="SVGID_2_">
			<use xlink:href="#SVGID_1_"  style="overflow:visible;"/>
		</clipPath>
		<g style="clip-path:url(#SVGID_2_);">
			
				<image style="overflow:visible;" width="134" height="100" xlink:href="Logo.png"  transform="matrix(0.7381 0 0 0.7381 31.35 8.4462)">
			</image>
		</g>
	</g>
	<g>
		<g>
			<path class="st0" d="M128.6,32.1c0.2,1.5,0.7,2.7,2.3,2.7c1.6,0,2.1-1,2.1-2.3c0-1.4-0.7-2.3-2.9-3.3c-3-1.4-4.2-2.7-4.2-5.3
				c0-2.8,1.8-4.7,5-4.7c4,0,4.9,2.7,5,5h-3.1c-0.1-1-0.4-2.5-2-2.5c-1.2,0-1.8,0.8-1.8,2c0,1.3,0.6,1.9,2.6,2.8
				c3.2,1.5,4.6,2.9,4.6,5.8c0,2.8-1.7,5-5.4,5c-4,0-5.3-2.6-5.4-5.2H128.6z"/>
			<path class="st0" d="M149.5,30.5c0-3,0.1-6.4,0.1-8.4h-0.1c-0.6,3.3-1.6,9.3-2.7,15H144c-0.9-5.3-1.9-11.6-2.4-15h-0.1
				c0.1,2.1,0.2,5.7,0.2,8.8V37h-2.9V19.4h4.7c0.9,4.9,1.7,9.8,2.1,12.3h0c0.4-2.4,1.5-7.7,2.4-12.3h4.6V37h-3V30.5z"/>
			<path class="st0" d="M158.3,32.6l-0.9,4.4h-3.2l4.1-17.6h4.1l4.1,17.6h-3.3l-0.9-4.4H158.3z M161.8,29.8
				c-0.7-3.4-1.2-5.8-1.5-7.5h-0.1c-0.2,1.6-0.8,4.3-1.4,7.5H161.8z"/>
			<path class="st0" d="M184.2,30.5c0-3,0.1-6.4,0.1-8.4h-0.1c-0.6,3.3-1.6,9.3-2.7,15h-2.8c-0.9-5.3-1.9-11.6-2.4-15h-0.1
				c0.1,2.1,0.2,5.7,0.2,8.8V37h-2.9V19.4h4.7c0.9,4.9,1.7,9.8,2.1,12.3h0c0.4-2.4,1.5-7.7,2.4-12.3h4.6V37h-3V30.5z"/>
			<path class="st0" d="M199.6,33.1c0,2,0,3.3,0,4h-3c-0.1-0.4-0.1-1-0.1-1.5c-0.6,1.2-1.6,1.7-3,1.7c-1.9,0-3.4-0.9-3.4-4v-9.7h3.1
				v9c0,1.3,0.3,2.1,1.4,2.1c1.2,0,1.8-0.6,1.8-2.8v-8.3h3.1V33.1z"/>
			<path class="st0" d="M205.5,18.5v6.3c0.5-0.9,1.3-1.5,3-1.5c2.2,0,3.3,1.5,3.3,4.2V37h-3.1v-8.9c0-1.3-0.2-2.2-1.6-2.2
				c-1.4,0-1.7,1-1.7,2.8V37h-3.1V18.5H205.5z"/>
			<path class="st0" d="M223.6,34.1c0,0.7,0.1,2.3,0.1,2.9h-2.8c-0.1-0.3-0.1-0.9-0.1-1.3c-0.5,0.9-1.4,1.5-3,1.5
				c-2.6,0-3.6-2.1-3.6-4c0-2.8,1.9-4.4,5.3-4.4c0.5,0,0.8,0,1.1,0v-1.5c0-0.8-0.1-1.7-1.4-1.7c-1.3,0-1.4,0.8-1.5,1.7h-2.9
				c0.1-2,1-4.1,4.6-4.1c2.9,0,4.4,1.3,4.4,3.9V34.1z M220.6,31.1c-0.3-0.1-0.6-0.1-1-0.1c-1.8,0-2.4,0.8-2.4,1.9
				c0,0.8,0.4,1.7,1.5,1.7c1.6,0,1.9-1.2,1.9-3.2V31.1z"/>
			<path class="st0" d="M226.5,27.6c0-2.7,0-3.5,0-4h3c0.1,0.3,0.1,0.9,0.1,1.4c0.6-1,1.6-1.6,3-1.6c1.5,0,2.3,0.7,2.7,1.8
				c0.6-0.9,1.5-1.8,3.3-1.8c1.9,0,3.4,1,3.4,4V37h-3.1v-9.2c0-1.1-0.3-1.9-1.4-1.9c-1.3,0-1.7,1-1.7,2.6V37h-3.1v-9.1
				c0-1.2-0.4-1.9-1.4-1.9c-1.2,0-1.7,0.9-1.7,2.7V37h-3.1V27.6z"/>
			<path class="st0" d="M244.9,27.6c0-2.7,0-3.5,0-4h3c0.1,0.3,0.1,0.9,0.1,1.4c0.6-1,1.6-1.6,3-1.6c1.5,0,2.3,0.7,2.7,1.8
				c0.6-0.9,1.5-1.8,3.3-1.8c1.9,0,3.4,1,3.4,4V37h-3.1v-9.2c0-1.1-0.3-1.9-1.4-1.9c-1.3,0-1.7,1-1.7,2.6V37h-3.1v-9.1
				c0-1.2-0.4-1.9-1.4-1.9c-1.2,0-1.7,0.9-1.7,2.7V37h-3.1V27.6z"/>
			<path class="st0" d="M272,34.1c0,0.7,0.1,2.3,0.1,2.9h-2.8c-0.1-0.3-0.1-0.9-0.1-1.3c-0.5,0.9-1.4,1.5-3,1.5
				c-2.6,0-3.6-2.1-3.6-4c0-2.8,1.9-4.4,5.3-4.4c0.5,0,0.8,0,1.1,0v-1.5c0-0.8-0.1-1.7-1.4-1.7c-1.3,0-1.4,0.8-1.5,1.7H263
				c0.1-2,1-4.1,4.6-4.1c2.9,0,4.4,1.3,4.4,3.9V34.1z M269,31.1c-0.3-0.1-0.6-0.1-1-0.1c-1.8,0-2.4,0.8-2.4,1.9
				c0,0.8,0.4,1.7,1.5,1.7c1.6,0,1.9-1.2,1.9-3.2V31.1z"/>
			<path class="st0" d="M284.3,18.5v14.7c0,1.6,0,3,0,3.7h-3c0-0.3-0.1-1-0.1-1.4c-0.4,1-1.2,1.7-3,1.7c-2.8,0-4-2.6-4-7.1
				c0-4.1,1.3-6.8,4.5-6.8c1.5,0,2.2,0.5,2.4,1.1v-5.8H284.3z M277.4,30.2c0,3.1,0.6,4.4,1.9,4.4c1.6,0,2-1.3,2-4.5
				c0-3.1-0.2-4.2-1.8-4.2C278.2,26,277.4,26.9,277.4,30.2z"/>
			<path class="st0" d="M287.1,23.5h3.1V37h-3.1V23.5z M287.1,18.5h3.1v3.1h-3.1V18.5z"/>
			<path class="st0" d="M295.3,23.5c1,4.3,1.9,8,2.1,9.6h0c0.3-1.9,1.2-5.8,2.1-9.6h3.1l-3.9,14.1c-1.2,4.2-2.7,4.4-4.5,4.4
				c-0.3,0-0.8,0-1.2-0.1v-2.6c0.2,0,0.7,0.1,1,0.1c1.2,0,1.6-0.6,1.9-2.2l-4-13.6H295.3z"/>
			<path class="st0" d="M313,34.1c0,0.7,0.1,2.3,0.1,2.9h-2.8c-0.1-0.3-0.1-0.9-0.1-1.3c-0.5,0.9-1.4,1.5-3,1.5
				c-2.6,0-3.6-2.1-3.6-4c0-2.8,1.9-4.4,5.3-4.4c0.5,0,0.8,0,1.1,0v-1.5c0-0.8-0.1-1.7-1.4-1.7c-1.3,0-1.4,0.8-1.5,1.7h-2.9
				c0.1-2,1-4.1,4.6-4.1c2.9,0,4.4,1.3,4.4,3.9V34.1z M310,31.1c-0.3-0.1-0.6-0.1-1-0.1c-1.8,0-2.4,0.8-2.4,1.9
				c0,0.8,0.4,1.7,1.5,1.7c1.6,0,1.9-1.2,1.9-3.2V31.1z"/>
			<path class="st0" d="M319,18.5v6.3c0.5-0.9,1.3-1.5,3-1.5c2.2,0,3.3,1.5,3.3,4.2V37h-3.1v-8.9c0-1.3-0.2-2.2-1.6-2.2
				c-1.4,0-1.7,1-1.7,2.8V37h-3.1V18.5H319z"/>
			<path class="st0" d="M128.6,64.1c0.2,1.5,0.7,2.7,2.3,2.7c1.6,0,2.1-1,2.1-2.3c0-1.4-0.7-2.3-2.9-3.3c-3-1.4-4.2-2.7-4.2-5.3
				c0-2.8,1.8-4.7,5-4.7c4,0,4.9,2.7,5,5h-3.1c-0.1-1-0.4-2.5-2-2.5c-1.2,0-1.8,0.8-1.8,2c0,1.3,0.6,1.9,2.6,2.8
				c3.2,1.5,4.6,2.9,4.6,5.8c0,2.8-1.7,5-5.4,5c-4,0-5.3-2.6-5.4-5.2H128.6z"/>
			<path class="st0" d="M147.4,66.1c0,0.7,0.1,2.3,0.1,2.9h-2.8c-0.1-0.3-0.1-0.9-0.1-1.3c-0.5,0.9-1.4,1.5-3,1.5
				c-2.6,0-3.6-2.1-3.6-4c0-2.8,1.9-4.4,5.3-4.4c0.5,0,0.8,0,1.1,0v-1.5c0-0.8-0.1-1.7-1.4-1.7c-1.3,0-1.4,0.8-1.5,1.7h-2.9
				c0.1-2,1-4.1,4.6-4.1c2.9,0,4.4,1.3,4.4,3.9V66.1z M144.4,63.1c-0.3-0.1-0.6-0.1-1-0.1c-1.8,0-2.4,0.8-2.4,1.9
				c0,0.8,0.4,1.7,1.5,1.7c1.6,0,1.9-1.2,1.9-3.2V63.1z"/>
			<path class="st0" d="M152.4,55.5c1,5.9,1.3,8.4,1.5,10.1h0c0.2-1.8,0.8-3.8,2-10.1h2.8c1,5.1,1.8,8.5,1.9,10.1h0
				c0.2-1.4,0.4-3.3,1.6-10.1h3.1L162.1,69H159c-0.8-4.1-1.5-7.3-1.7-9.2h0c-0.2,1.9-1.1,5.2-1.9,9.2h-3.2l-3-13.5H152.4z"/>
			<path class="st0" d="M176,66.1c0,0.7,0.1,2.3,0.1,2.9h-2.8c-0.1-0.3-0.1-0.9-0.1-1.3c-0.5,0.9-1.4,1.5-3,1.5
				c-2.6,0-3.6-2.1-3.6-4c0-2.8,1.9-4.4,5.3-4.4c0.5,0,0.8,0,1.1,0v-1.5c0-0.8-0.1-1.7-1.4-1.7c-1.3,0-1.4,0.8-1.5,1.7H167
				c0.1-2,1-4.1,4.6-4.1c2.9,0,4.4,1.3,4.4,3.9V66.1z M173,63.1c-0.3-0.1-0.6-0.1-1-0.1c-1.8,0-2.4,0.8-2.4,1.9
				c0,0.8,0.4,1.7,1.5,1.7c1.6,0,1.9-1.2,1.9-3.2V63.1z"/>
			<path class="st0" d="M178.8,59.7c0-2.8,0-3.5,0-4.2h3c0,0.3,0.1,0.9,0.1,1.4c0.4-0.7,1.2-1.7,3-1.7c2.2,0,3.4,1.4,3.4,4.1V69
				h-3.1v-8.9c0-1.3-0.3-2.2-1.5-2.2c-1.2,0-1.7,0.7-1.7,2.7V69h-3.1V59.7z"/>
			<path class="st0" d="M200.6,67.9c0,3.8-1.1,6.2-5.2,6.2c-3.8,0-4.6-2.3-4.7-3.9h3.1c0.1,0.4,0.2,1.4,1.8,1.4c1.7,0,2-1.3,2-3.6
				v-0.6c-0.5,1.1-1.5,1.6-2.9,1.6c-2.9,0-4.1-2.5-4.1-6.5c0-4.6,1.7-7.1,4.4-7.1c1.8,0,2.4,0.8,2.6,1.4c0-0.4,0.1-0.9,0.1-1.2h3
				c0,0.8,0,2.2,0,4.1V67.9z M193.8,62.3c0,2.8,0.7,4,1.9,4c1.6,0,1.9-1.5,1.9-4.4c0-2.4-0.1-4-1.8-4
				C194.5,58,193.8,59.3,193.8,62.3z"/>
			<path class="st0" d="M212.3,66.1c0,0.7,0.1,2.3,0.1,2.9h-2.8c-0.1-0.3-0.1-0.9-0.1-1.3c-0.5,0.9-1.4,1.5-3,1.5
				c-2.6,0-3.6-2.1-3.6-4c0-2.8,1.9-4.4,5.3-4.4c0.5,0,0.8,0,1.1,0v-1.5c0-0.8-0.1-1.7-1.4-1.7c-1.3,0-1.4,0.8-1.5,1.7h-2.9
				c0.1-2,1-4.1,4.6-4.1c2.9,0,4.4,1.3,4.4,3.9V66.1z M209.3,63.1c-0.3-0.1-0.6-0.1-1-0.1c-1.8,0-2.4,0.8-2.4,1.9
				c0,0.8,0.4,1.7,1.5,1.7c1.6,0,1.9-1.2,1.9-3.2V63.1z"/>
			<path class="st0" d="M215.2,59.7c0-2.8,0-3.5,0-4.2h3c0,0.3,0.1,0.9,0.1,1.4c0.4-0.7,1.2-1.7,3-1.7c2.2,0,3.4,1.4,3.4,4.1V69
				h-3.1v-8.9c0-1.3-0.3-2.2-1.5-2.2c-1.2,0-1.7,0.7-1.7,2.7V69h-3.1V59.7z"/>
			<path class="st0" d="M232.7,51.4h4.6c4.5,0,6.3,2.9,6.3,8.4c0,5.9-1.7,9.2-6.5,9.2h-4.3V51.4z M235.9,66.4h1.1
				c2.5,0,3.3-1.9,3.3-6.6c0-4-0.8-5.8-3.3-5.8h-1.2V66.4z"/>
			<path class="st0" d="M248.5,63.1c0,1.7,0.2,3.6,1.9,3.6c1.5,0,1.7-1.3,1.8-1.8h3c0,0.4-0.4,4.3-4.8,4.3c-4.4,0-5-3.7-5-7.1
				c0-4.3,1.6-6.9,5-6.9c3.9,0,4.9,2.9,4.9,6.4c0,0.5,0,1.1,0,1.3H248.5z M252.2,60.8c0-1.3-0.2-3-1.8-3c-1.8,0-1.9,2-1.9,3H252.2z"
				/>
			<path class="st0" d="M260.6,68v5.9h-3.1V59.4c0-1.8,0-3,0-3.9h3c0,0.3,0.1,1,0.1,1.5c0.4-0.9,1.2-1.7,3-1.7
				c2.5,0,3.9,2.1,3.9,6.7c0,5.3-1.7,7.2-4.3,7.2C261.8,69.3,261,68.7,260.6,68z M264.4,62.2c0-3.2-0.7-4.2-2-4.2
				c-1.6,0-1.9,1.5-1.9,4.1c0,3.1,0.2,4.5,1.9,4.5C263.7,66.6,264.4,65.2,264.4,62.2z"/>
			<path class="st0" d="M279.3,62.2c0,4.9-1.8,7.1-5.1,7.1c-3.3,0-5-2.1-5-7c0-4.8,2-6.9,5.2-6.9C277.6,55.3,279.3,57.7,279.3,62.2z
				 M272.3,62.2c0,2.9,0.5,4.5,2,4.5c1.4,0,1.9-1.5,1.9-4.4c0-3-0.5-4.3-1.9-4.3C272.9,57.9,272.3,59.3,272.3,62.2z"/>
			<path class="st0" d="M284.7,61.3c0.9-1.7,2.2-3.8,3.3-5.7h3.4c-1.1,1.7-2.1,3.2-3.3,4.9c0,0,3.5,8.5,3.5,8.5h-3.5l-2-6
				c-0.4,0.5-1,1.5-1.4,2V69h-3.1V50.5h3.1V61.3z"/>
		</g>
	</g>
</g>
</svg>
