<?xml version="1.0" encoding="utf-8"?>
<!-- Generator: Adobe Illustrator 22.1.0, SVG Export Plug-In . SVG Version: 6.00 Build 0)  -->
<svg version="1.1" id="Layer_1" xmlns="http://www.w3.org/2000/svg" xmlns:xlink="http://www.w3.org/1999/xlink" x="0px" y="0px"
	 viewBox="0 0 365 90" style="enable-background:new 0 0 365 90;" xml:space="preserve">
<style type="text/css">
	.st0{fill:#D8E3FF;}
	.st1{fill:#504B8E;}
	.st2{fill:#FFFFFF;}
</style>
<g>
	<circle class="st0" cx="53.5" cy="45.8" r="36.5"/>
	<path class="st1" d="M3.4,21.3c2.2,0.2,4.4,0.7,6.5,2.1c0.5,0.4,1,0.7,1.5,1.2c0.4,0.5,0.9,1,1.3,1.5c0.4,0.5,0.7,0.9,1,1.4
		c5.5,0.4,10.9,1.1,16.3,2.4c3.8,0.8,7.5,2,11.2,3.4c3.2,1.3,6.5,2.9,9.5,5c-9.1-10-18.9-13.6-23.6-15.2C17,19.6,7.9,20,1.4,21.3
		C2.1,21.3,2.8,21.3,3.4,21.3z"/>
	<path class="st1" d="M29.6,33.1c-3.7-0.9-7.4-1.5-11.1-2.1c-0.9-0.1-1.8-0.3-2.7-0.4c1.1,1.8,2.1,3.6,3,5.5
		c0.2,0.4,0.4,0.8,0.6,1.2c4.9,0.4,9.8,1,14.6,2.1l2.8,0.7l1.4,0.4l1.4,0.4l2.7,0.9c0.9,0.3,1.8,0.7,2.7,1.1c3.6,1.5,7.1,3.4,10.4,6
		c2.7,2.1,5.2,4.7,7.1,7.9c-1.1-2.7-2.5-5.5-4.1-8.2c-2.1-3-4.7-5.4-7.4-7.3c-3.2-2.2-6.7-3.9-10.3-5.1C37,35,33.3,33.9,29.6,33.1z"
		/>
	<path class="st1" d="M54.3,51.2c-3.2-2.2-6.6-4-10.1-5.3l-2.6-1l-2.7-0.8l-1.3-0.4l-1.4-0.3l-2.7-0.7c-3.6-0.8-7.3-1.5-11-1.9
		c-0.6-0.1-1.2-0.2-1.8-0.2c0.4,1,0.9,1.8,1.4,2.6c1.3,1.9,3,3.3,4.8,4.2c0.9,0.5,1.9,0.8,2.9,1.1l3.2,0.9l12.6,3.7l6.3,1.9
		c2.2,0.8,4.2,2.1,6.1,3.8c3.6,3.2,6.3,7.5,8.6,12.1c-0.8-3.9-2.2-7.5-4-10.7C60.5,56.3,57.5,53.5,54.3,51.2z"/>
</g>
<rect x="1.5" y="-102.1" class="st2" width="362" height="90"/>
<g>
	<g>
		<path class="st1" d="M102,51.5c1,4.4,4.1,6.6,9.4,6.6c5.4,0,7.6-2.3,7.6-5.6c0-3.6-2-5.4-9.5-7.2c-10.8-2.6-13.8-6.4-13.8-12.1
			c0-6.9,5.1-11.8,14.7-11.8c10.6,0,14.9,5.9,15.5,11.7H118c-0.5-2.9-2.3-5.8-7.8-5.8c-4.1,0-6.5,1.8-6.5,5.1c0,3.2,2,4.5,8.9,6.2
			c12,2.9,14.4,7.4,14.4,13.1c0,7.3-5.5,12.5-16.2,12.5c-10.5,0-15.7-5.4-16.6-12.5H102z"/>
		<path class="st1" d="M133.6,19.6h7.5v7.3h-7.5V19.6z M133.6,32.6h7.5v30.8h-7.5V32.6z"/>
		<path class="st1" d="M154.2,54.3c0.7,2.8,2.9,4.3,6.4,4.3c3.6,0,5-1.4,5-3.6c0-2.3-1.4-3.2-6.3-4.4c-9.6-2.4-11.3-5.3-11.3-9.6
			c0-4.5,3.2-9.1,12-9.1c8.9,0,12.1,4.9,12.4,9.2h-7.1c-0.3-1.4-1.3-3.8-5.6-3.8c-3.3,0-4.4,1.5-4.4,3.1c0,1.8,1.1,2.7,6.3,3.9
			c10,2.3,11.6,5.7,11.6,10.3c0,5.2-4,9.6-12.8,9.6c-8.9,0-12.8-4.4-13.5-9.8H154.2z"/>
		<path class="st1" d="M186.7,60.4v15h-7.4V40.1c0-2.5,0-5-0.1-7.5h7.2c0.1,0.9,0.2,2.8,0.2,4.2c1.4-2.5,4.3-4.9,9.3-4.9
			c7,0,12.3,5.9,12.3,15.4c0,10.9-6,16.9-13.4,16.9C190.3,64.2,187.9,62.4,186.7,60.4z M200.7,47.5c0-6-2.5-9.6-7-9.6
			c-5.4,0-7.4,3.4-7.4,10.1c0,6.4,1.8,10.1,7,10.1C198.3,58.1,200.7,54.3,200.7,47.5z"/>
		<path class="st1" d="M220.1,49.6c0,4.7,2.4,8.7,6.9,8.7c4,0,5.2-1.8,6.1-3.8h7.5c-1.1,3.8-4.5,9.7-13.8,9.7
			c-10,0-14.3-7.7-14.3-15.7c0-9.5,4.8-16.5,14.6-16.5c10.4,0,13.9,7.8,13.9,15.1c0,1,0,1.7-0.1,2.6H220.1z M233.6,44.8
			c-0.1-4.1-1.9-7.5-6.4-7.5c-4.5,0-6.4,3.1-6.8,7.5H233.6z"/>
		<path class="st1" d="M247.2,40.4c0-2.6,0-5.5-0.1-7.8h7.2c0.2,0.8,0.3,3.3,0.3,4.3c1.1-2.2,3.6-5,9.2-5c6.1,0,10.2,4,10.2,11.9
			v19.7h-7.5V44.6c0-3.9-1.4-6.6-5.5-6.6c-4.4,0-6.5,2.8-6.5,8.5v16.9h-7.5V40.4z"/>
		<path class="st1" d="M282.2,40.6c0-2.7,0-5.4-0.1-7.9h7.1c0.1,0.8,0.3,2.7,0.3,4c1.5-2.5,4.1-4.8,8.7-4.8c4.4,0,7,2.3,8.2,5
			c1.8-2.7,4.5-5,9.6-5c5.3,0,9.8,3.2,9.8,11.3v20.2h-7.3V44.1c0-3.1-1.1-6.1-5-6.1c-4.1,0-5.8,2.8-5.8,7.8v17.7h-7.3V44.4
			c0-3.5-0.9-6.4-4.9-6.4c-4,0-5.9,2.8-5.9,8.3v17.2h-7.4V40.6z"/>
		<path class="st1" d="M358.7,55.9c0,2.9,0.2,6.8,0.4,7.5H352c-0.2-0.6-0.4-2.2-0.5-3.4c-1.1,1.8-3.3,4.1-9,4.1
			c-7.4,0-10.5-4.8-10.5-9.6c0-7,5.6-10.2,14.6-10.2c1.7,0,3.6,0,4.7,0v-2.1c0-2.4-0.8-4.9-5.4-4.9c-4.1,0-4.9,1.9-5.4,4.2h-7.1
			c0.4-5.1,3.6-9.7,12.8-9.6c8,0,12.4,3.2,12.4,10.4V55.9z M351.4,49.1c-0.8,0-2.7,0-4,0c-5.5,0-7.9,1.6-7.9,5c0,2.6,1.6,4.6,5,4.6
			c6.1,0,6.9-4.2,6.9-8.8V49.1z"/>
	</g>
</g>
</svg>
